<svg width="1440" height="850" viewBox="0 0 1440 850" fill="none" xmlns="http://www.w3.org/2000/svg">
<path d="M732.808 389.416L896.083 488.595L732.815 587.774L569.541 488.595L732.808 389.416ZM1328.47 244.306L1119.84 117.558L911.209 244.306L732.808 352.676L569.534 253.497L747.935 145.109L941.439 27.569L911.202 9.1897L732.815 117.558L539.295 0L330.657 126.748L360.903 145.128L539.295 36.7592L702.576 135.938L509.051 253.497L702.569 371.055L539.295 470.234L360.903 361.847L167.39 244.306L137.151 262.668L330.664 380.226L509.056 488.595L345.777 587.792L152.264 470.234L-41.2477 587.774L-204.522 488.595L-26.1299 380.226L-56.3673 361.865L-265 488.595L-41.2477 624.515L152.264 506.974L315.538 606.153L122.032 723.694L330.664 850.442L360.903 832.081L182.51 723.694L360.903 615.343L539.295 506.956L702.576 606.153L509.051 723.712L702.569 841.252L524.176 949.621L554.415 968L732.808 859.631L911.209 968L941.446 949.639L747.928 832.081L569.534 723.712L732.815 624.515L911.209 732.883L1104.73 850.442L1134.97 832.081L956.566 723.694L1119.84 624.515L1298.24 732.902L1328.48 714.522L1119.84 587.792L926.327 705.332L763.055 606.153L941.439 497.785L1119.84 389.416L1298.24 497.785L1491.76 615.343L1522 596.964L1343.6 488.595L1521.98 380.226L1491.74 361.865L1313.36 470.234L1119.84 352.676L926.322 470.234L763.048 371.055L941.446 262.668L1119.84 154.299L1298.23 262.668L1328.47 244.306Z" fill="#907EFD" fill-opacity="0.17"/>
</svg>
